# xmcd CD database file
#
# Track frame offsets:
#	150
#	22089
#	40265
#	73456
#
# Disc length: 4440 seconds
#
# Revision: 0
# Processed by: cddbd v1.5.1PL0 Copyright (c) Steve Scherf et al.
# Submitted via: CDex 1.51
#
DISCID=38115604
DTITLE=椿 - Hands
DYEAR=2004
DGENRE=JPop
TTITLE0=Hands
TTITLE1=Keep moving on
TTITLE2=Hands -inst-
TTITLE3=data
EXTD=YEAR: 2004
EXTT0=
EXTT1=
EXTT2=
EXTT3=
PLAYORDER=
